<?xml version="1.0" encoding="utf-8"?>
<!-- Generator: Adobe Illustrator 12.0.0, SVG Export Plug-In . SVG Version: 6.00 Build 51448)  -->
<!DOCTYPE svg PUBLIC "-//W3C//DTD SVG 1.1//EN" "http://www.w3.org/Graphics/SVG/1.1/DTD/svg11.dtd" [
	<!ENTITY ns_svg "http://www.w3.org/2000/svg">
	<!ENTITY ns_xlink "http://www.w3.org/1999/xlink">
]>
<svg  version="1.1" id="Calque_1" xmlns="&ns_svg;" xmlns:xlink="&ns_xlink;" width="102" height="102" viewBox="-0.5 -0.5 102 102"
	 overflow="visible" enable-background="new -0.5 -0.5 102 102" xml:space="preserve">
<g id="XMLID_7_">
	<g>
		
			<radialGradient id="XMLID_4_" cx="-64.4448" cy="-49.5869" r="50" gradientTransform="matrix(1 0 0 -1 114.9448 0.9131)" gradientUnits="userSpaceOnUse">
			<stop  offset="0" style="stop-color:#DEDEDE"/>
			<stop  offset="0.1798" style="stop-color:#DADADA"/>
			<stop  offset="0.3507" style="stop-color:#CFCFCF"/>
			<stop  offset="0.5181" style="stop-color:#BCBCBC"/>
			<stop  offset="0.6832" style="stop-color:#A1A1A1"/>
			<stop  offset="0.8452" style="stop-color:#7E7E7E"/>
			<stop  offset="1" style="stop-color:#565656"/>
		</radialGradient>
		<path fill="url(#XMLID_4_)" d="M50.5,0.5c27.609,0,50,22.39,50,50c0,27.609-22.391,50-50,50c-27.61,0-50-22.391-50-50
			C0.5,22.89,22.89,0.5,50.5,0.5z"/>
	</g>
	<g>
		<path fill="none" stroke="#000000" d="M100.5,50.5c0,27.609-22.391,50-50,50c-27.61,0-50-22.391-50-50c0-27.61,22.39-50,50-50
			C78.109,0.5,100.5,22.89,100.5,50.5z"/>
	</g>
</g>
<g>
	<rect x="46.75" y="3" fill="none" width="21.25" height="19.5"/>
	<path fill="#FFFFFF" d="M47.586,10.81V3.396h1.056l2.365,3.751c0.539,0.869,0.979,1.639,1.32,2.409l0.032-0.011
		c-0.088-0.99-0.109-1.892-0.109-3.036V3.396h0.902v7.414h-0.969L49.83,7.048c-0.517-0.825-1.012-1.672-1.375-2.475l-0.033,0.011
		c0.055,0.935,0.066,1.826,0.066,3.058v3.168H47.586z"/>
</g>
<g>
</g>
<g>
	<rect x="2.75" y="47" fill="none" width="21.25" height="19.5"/>
	<path fill="#FFFFFF" d="M4.796,54.811l-1.881-7.415h1.012l0.88,3.75c0.22,0.936,0.418,1.849,0.55,2.563h0.022
		c0.121-0.737,0.352-1.616,0.605-2.573l0.99-3.741h1.001l0.902,3.762c0.209,0.891,0.407,1.76,0.517,2.541h0.022
		c0.154-0.814,0.363-1.639,0.594-2.563l0.979-3.741h0.979l-2.101,7.415H8.866L7.931,50.96c-0.231-0.957-0.385-1.683-0.484-2.431
		H7.425c-0.121,0.748-0.297,1.463-0.572,2.42l-1.056,3.861H4.796z"/>
</g>
<g>
</g>
<g>
	<rect x="92.75" y="46.25" fill="none" width="21.25" height="19.5"/>
	<path fill="#FFFFFF" d="M97.414,50.584h-2.871v2.673h3.212v0.804h-4.18v-7.415h4.015v0.803h-3.047v2.343h2.871V50.584z"/>
</g>
<g>
	<rect x="47.125" y="90.25" fill="none" width="21.25" height="19.5"/>
	<path fill="#FFFFFF" d="M47.84,96.895c0.429,0.274,1.045,0.483,1.705,0.483c0.979,0,1.551-0.506,1.551-1.265
		c0-0.682-0.396-1.09-1.396-1.463c-1.21-0.44-1.958-1.078-1.958-2.112c0-1.155,0.957-2.013,2.398-2.013
		c0.748,0,1.308,0.176,1.628,0.363l-0.265,0.78c-0.231-0.144-0.726-0.353-1.397-0.353c-1.012,0-1.397,0.605-1.397,1.111
		c0,0.693,0.451,1.034,1.474,1.43c1.254,0.496,1.881,1.09,1.881,2.179c0,1.144-0.836,2.146-2.585,2.146
		c-0.715,0-1.496-0.221-1.892-0.484L47.84,96.895z"/>
</g>
</svg>
